# xmcd
#
# Track frame offsets: 
#        150
#        17926
#        34408
#        52720
#        70282
#        86398
#        110410
#        129085
#        146322
#        162710
#        179828
#        202777
#
# Disc length: 2922 seconds
#
# Revision: 0
# Processed by: cddbd v1.5.1PL0 Copyright (c) Steve Scherf et al.
# Submitted via: ExactAudioCopy v0.95a5
#
DISCID=a00b680c
DTITLE=Povertyneck Hillbillies - don't look back
DYEAR=2005
DGENRE=Country
TTITLE0=The Night That Changed My Life
TTITLE1=Heaven Help Me
TTITLE2=The Hillbilly Way
TTITLE3=Kinda Cool Aint It
TTITLE4=One Night In New Orleans
TTITLE5=She Rides Wild Horses
TTITLE6=Jericho
TTITLE7=Any Road
TTITLE8=Right Here, Right Now
TTITLE9=Go Crazy With My Heart
TTITLE10=The Way
TTITLE11=Mr Right Now (New)
EXTD=
EXTT0=
EXTT1=
EXTT2=
EXTT3=
EXTT4=
EXTT5=
EXTT6=
EXTT7=
EXTT8=
EXTT9=
EXTT10=
EXTT11=
PLAYORDER=
